<mxfile host="Electron" agent="Mozilla/5.0 (Windows NT 10.0; Win64; x64) AppleWebKit/537.36 (KHTML, like Gecko) draw.io/24.7.5 Chrome/126.0.6478.183 Electron/31.3.0 Safari/537.36" version="24.7.5">
  <diagram name="Page-1" id="2cc2dc42-3aac-f2a9-1cec-7a8b7cbee084">
    <mxGraphModel dx="934" dy="1040" grid="1" gridSize="10" guides="1" tooltips="1" connect="1" arrows="1" fold="1" page="1" pageScale="1" pageWidth="1100" pageHeight="850" background="none" math="0" shadow="0">
      <root>
        <mxCell id="0" />
        <mxCell id="1" parent="0" />
        <mxCell id="7026571954dc6520-1" value="" style="strokeWidth=1;shadow=0;dashed=0;align=center;html=1;shape=mxgraph.mockup.containers.browserWindow;rSize=0;strokeColor=#666666;mainText=,;recursiveResize=0;rounded=0;labelBackgroundColor=none;fontFamily=Verdana;fontSize=12" parent="1" vertex="1">
          <mxGeometry x="20" y="15" width="1360" height="945" as="geometry" />
        </mxCell>
        <mxCell id="7026571954dc6520-2" value="Page 1" style="strokeWidth=1;shadow=0;dashed=0;align=center;html=1;shape=mxgraph.mockup.containers.anchor;fontSize=17;fontColor=#666666;align=left;" parent="7026571954dc6520-1" vertex="1">
          <mxGeometry x="60" y="12" width="110" height="26" as="geometry" />
        </mxCell>
        <mxCell id="7026571954dc6520-3" value="https://www.default.com" style="strokeWidth=1;shadow=0;dashed=0;align=center;html=1;shape=mxgraph.mockup.containers.anchor;rSize=0;fontSize=17;fontColor=#666666;align=left;" parent="7026571954dc6520-1" vertex="1">
          <mxGeometry x="130" y="60" width="250" height="26" as="geometry" />
        </mxCell>
        <mxCell id="7026571954dc6520-21" value="" style="verticalLabelPosition=bottom;shadow=0;dashed=0;align=center;html=1;verticalAlign=top;strokeWidth=1;shape=mxgraph.mockup.markup.line;strokeColor=#999999;rounded=0;labelBackgroundColor=none;fillColor=#ffffff;fontFamily=Verdana;fontSize=12;fontColor=#000000;" parent="7026571954dc6520-1" vertex="1">
          <mxGeometry y="205" width="1350" height="20" as="geometry" />
        </mxCell>
        <mxCell id="7026571954dc6520-17" value="&lt;pre data-ke-type=&quot;codeblock&quot;&gt;&lt;br&gt;&lt;/pre&gt;" style="text;spacingTop=-5;whiteSpace=wrap;html=1;align=left;fontSize=12;fontFamily=Helvetica;fillColor=none;strokeColor=none;rounded=0;shadow=1;labelBackgroundColor=none;" parent="7026571954dc6520-1" vertex="1">
          <mxGeometry x="180" y="395" width="740" height="120" as="geometry" />
        </mxCell>
        <mxCell id="W8yCb6-o_cgSvQj_zucy-60" value="" style="group" vertex="1" connectable="0" parent="7026571954dc6520-1">
          <mxGeometry x="240" y="265" width="870" height="195" as="geometry" />
        </mxCell>
        <mxCell id="W8yCb6-o_cgSvQj_zucy-1" value="&lt;pre style=&quot;text-align: left;&quot; data-ke-type=&quot;codeblock&quot;&gt;Comment Area TextBox&lt;/pre&gt;" style="rounded=0;whiteSpace=wrap;html=1;" vertex="1" parent="W8yCb6-o_cgSvQj_zucy-60">
          <mxGeometry x="120" y="45" width="750" height="90" as="geometry" />
        </mxCell>
        <mxCell id="W8yCb6-o_cgSvQj_zucy-24" value="" style="group" vertex="1" connectable="0" parent="W8yCb6-o_cgSvQj_zucy-60">
          <mxGeometry width="870" height="195" as="geometry" />
        </mxCell>
        <mxCell id="7026571954dc6520-22" value="&lt;div&gt;&lt;/div&gt;" style="verticalLabelPosition=bottom;shadow=0;dashed=0;align=center;html=1;verticalAlign=top;strokeWidth=1;shape=mxgraph.mockup.graphics.simpleIcon;strokeColor=#999999;fillColor=#ffffff;rounded=0;labelBackgroundColor=none;fontFamily=Verdana;fontSize=12;fontColor=#000000;" parent="W8yCb6-o_cgSvQj_zucy-24" vertex="1">
          <mxGeometry y="35" width="80" height="90" as="geometry" />
        </mxCell>
        <mxCell id="W8yCb6-o_cgSvQj_zucy-2" value="Profile Image" style="text;html=1;align=center;verticalAlign=middle;whiteSpace=wrap;rounded=0;" vertex="1" parent="W8yCb6-o_cgSvQj_zucy-24">
          <mxGeometry x="10" y="65" width="60" height="30" as="geometry" />
        </mxCell>
        <mxCell id="W8yCb6-o_cgSvQj_zucy-3" value="Modify" style="strokeWidth=1;shadow=0;dashed=0;align=center;html=1;shape=mxgraph.mockup.buttons.button;strokeColor=#666666;fontColor=#ffffff;mainText=;buttonStyle=round;fontSize=17;fontStyle=1;fillColor=#008cff;whiteSpace=wrap;" vertex="1" parent="W8yCb6-o_cgSvQj_zucy-24">
          <mxGeometry x="505" y="155" width="100" height="40" as="geometry" />
        </mxCell>
        <mxCell id="W8yCb6-o_cgSvQj_zucy-5" value="Submit" style="strokeWidth=1;shadow=0;dashed=0;align=center;html=1;shape=mxgraph.mockup.buttons.button;strokeColor=#666666;fontColor=#ffffff;mainText=;buttonStyle=round;fontSize=17;fontStyle=1;fillColor=#008cff;whiteSpace=wrap;" vertex="1" parent="W8yCb6-o_cgSvQj_zucy-24">
          <mxGeometry x="755" y="155" width="110" height="40" as="geometry" />
        </mxCell>
        <mxCell id="W8yCb6-o_cgSvQj_zucy-4" value="Delete" style="strokeWidth=1;shadow=0;dashed=0;align=center;html=1;shape=mxgraph.mockup.buttons.button;strokeColor=#666666;fontColor=#ffffff;mainText=;buttonStyle=round;fontSize=17;fontStyle=1;fillColor=#008cff;whiteSpace=wrap;" vertex="1" parent="W8yCb6-o_cgSvQj_zucy-24">
          <mxGeometry x="625" y="155" width="110" height="40" as="geometry" />
        </mxCell>
        <mxCell id="W8yCb6-o_cgSvQj_zucy-6" value="author" style="rounded=0;whiteSpace=wrap;html=1;" vertex="1" parent="W8yCb6-o_cgSvQj_zucy-24">
          <mxGeometry x="125" width="115" height="25" as="geometry" />
        </mxCell>
        <mxCell id="W8yCb6-o_cgSvQj_zucy-8" value="&lt;span style=&quot;color: rgb(170, 170, 170); font-family: &amp;quot;Noto Sans&amp;quot;, sans-serif; font-style: normal; font-variant-ligatures: normal; font-variant-caps: normal; font-weight: 400; letter-spacing: normal; orphans: 2; text-align: left; text-indent: 0px; text-transform: none; widows: 2; word-spacing: 0px; -webkit-text-stroke-width: 0px; white-space: normal; background-color: rgb(252, 252, 252); text-decoration-thickness: initial; text-decoration-style: initial; text-decoration-color: initial; float: none; display: inline !important;&quot;&gt;&lt;font style=&quot;font-size: 13px;&quot;&gt;2024.01.25 14:16&lt;/font&gt;&lt;/span&gt;" style="rounded=0;whiteSpace=wrap;html=1;" vertex="1" parent="W8yCb6-o_cgSvQj_zucy-24">
          <mxGeometry x="255" width="115" height="25" as="geometry" />
        </mxCell>
        <mxCell id="W8yCb6-o_cgSvQj_zucy-61" value="" style="group" vertex="1" connectable="0" parent="7026571954dc6520-1">
          <mxGeometry x="240" y="485" width="870" height="195" as="geometry" />
        </mxCell>
        <mxCell id="W8yCb6-o_cgSvQj_zucy-62" value="&lt;pre style=&quot;text-align: left;&quot; data-ke-type=&quot;codeblock&quot;&gt;Comment Area TextBox&lt;/pre&gt;" style="rounded=0;whiteSpace=wrap;html=1;" vertex="1" parent="W8yCb6-o_cgSvQj_zucy-61">
          <mxGeometry x="120" y="45" width="750" height="90" as="geometry" />
        </mxCell>
        <mxCell id="W8yCb6-o_cgSvQj_zucy-63" value="" style="group" vertex="1" connectable="0" parent="W8yCb6-o_cgSvQj_zucy-61">
          <mxGeometry width="870" height="195" as="geometry" />
        </mxCell>
        <mxCell id="W8yCb6-o_cgSvQj_zucy-64" value="&lt;div&gt;&lt;/div&gt;" style="verticalLabelPosition=bottom;shadow=0;dashed=0;align=center;html=1;verticalAlign=top;strokeWidth=1;shape=mxgraph.mockup.graphics.simpleIcon;strokeColor=#999999;fillColor=#ffffff;rounded=0;labelBackgroundColor=none;fontFamily=Verdana;fontSize=12;fontColor=#000000;" vertex="1" parent="W8yCb6-o_cgSvQj_zucy-63">
          <mxGeometry y="35" width="80" height="90" as="geometry" />
        </mxCell>
        <mxCell id="W8yCb6-o_cgSvQj_zucy-65" value="Profile Image" style="text;html=1;align=center;verticalAlign=middle;whiteSpace=wrap;rounded=0;" vertex="1" parent="W8yCb6-o_cgSvQj_zucy-63">
          <mxGeometry x="10" y="65" width="60" height="30" as="geometry" />
        </mxCell>
        <mxCell id="W8yCb6-o_cgSvQj_zucy-66" value="Modify" style="strokeWidth=1;shadow=0;dashed=0;align=center;html=1;shape=mxgraph.mockup.buttons.button;strokeColor=#666666;fontColor=#ffffff;mainText=;buttonStyle=round;fontSize=17;fontStyle=1;fillColor=#008cff;whiteSpace=wrap;" vertex="1" parent="W8yCb6-o_cgSvQj_zucy-63">
          <mxGeometry x="505" y="155" width="100" height="40" as="geometry" />
        </mxCell>
        <mxCell id="W8yCb6-o_cgSvQj_zucy-67" value="Submit" style="strokeWidth=1;shadow=0;dashed=0;align=center;html=1;shape=mxgraph.mockup.buttons.button;strokeColor=#666666;fontColor=#ffffff;mainText=;buttonStyle=round;fontSize=17;fontStyle=1;fillColor=#008cff;whiteSpace=wrap;" vertex="1" parent="W8yCb6-o_cgSvQj_zucy-63">
          <mxGeometry x="755" y="155" width="110" height="40" as="geometry" />
        </mxCell>
        <mxCell id="W8yCb6-o_cgSvQj_zucy-68" value="Delete" style="strokeWidth=1;shadow=0;dashed=0;align=center;html=1;shape=mxgraph.mockup.buttons.button;strokeColor=#666666;fontColor=#ffffff;mainText=;buttonStyle=round;fontSize=17;fontStyle=1;fillColor=#008cff;whiteSpace=wrap;" vertex="1" parent="W8yCb6-o_cgSvQj_zucy-63">
          <mxGeometry x="625" y="155" width="110" height="40" as="geometry" />
        </mxCell>
        <mxCell id="W8yCb6-o_cgSvQj_zucy-69" value="author" style="rounded=0;whiteSpace=wrap;html=1;" vertex="1" parent="W8yCb6-o_cgSvQj_zucy-63">
          <mxGeometry x="125" width="115" height="25" as="geometry" />
        </mxCell>
        <mxCell id="W8yCb6-o_cgSvQj_zucy-70" value="&lt;span style=&quot;color: rgb(170, 170, 170); font-family: &amp;quot;Noto Sans&amp;quot;, sans-serif; font-style: normal; font-variant-ligatures: normal; font-variant-caps: normal; font-weight: 400; letter-spacing: normal; orphans: 2; text-align: left; text-indent: 0px; text-transform: none; widows: 2; word-spacing: 0px; -webkit-text-stroke-width: 0px; white-space: normal; background-color: rgb(252, 252, 252); text-decoration-thickness: initial; text-decoration-style: initial; text-decoration-color: initial; float: none; display: inline !important;&quot;&gt;&lt;font style=&quot;font-size: 13px;&quot;&gt;2024.01.25 14:16&lt;/font&gt;&lt;/span&gt;" style="rounded=0;whiteSpace=wrap;html=1;" vertex="1" parent="W8yCb6-o_cgSvQj_zucy-63">
          <mxGeometry x="255" width="115" height="25" as="geometry" />
        </mxCell>
        <mxCell id="W8yCb6-o_cgSvQj_zucy-71" value="" style="group" vertex="1" connectable="0" parent="7026571954dc6520-1">
          <mxGeometry x="240" y="725" width="870" height="195" as="geometry" />
        </mxCell>
        <mxCell id="W8yCb6-o_cgSvQj_zucy-72" value="&lt;pre style=&quot;text-align: left;&quot; data-ke-type=&quot;codeblock&quot;&gt;Comment Area TextBox&lt;/pre&gt;" style="rounded=0;whiteSpace=wrap;html=1;" vertex="1" parent="W8yCb6-o_cgSvQj_zucy-71">
          <mxGeometry x="120" y="45" width="750" height="90" as="geometry" />
        </mxCell>
        <mxCell id="W8yCb6-o_cgSvQj_zucy-73" value="" style="group" vertex="1" connectable="0" parent="W8yCb6-o_cgSvQj_zucy-71">
          <mxGeometry width="870" height="195" as="geometry" />
        </mxCell>
        <mxCell id="W8yCb6-o_cgSvQj_zucy-74" value="&lt;div&gt;&lt;/div&gt;" style="verticalLabelPosition=bottom;shadow=0;dashed=0;align=center;html=1;verticalAlign=top;strokeWidth=1;shape=mxgraph.mockup.graphics.simpleIcon;strokeColor=#999999;fillColor=#ffffff;rounded=0;labelBackgroundColor=none;fontFamily=Verdana;fontSize=12;fontColor=#000000;" vertex="1" parent="W8yCb6-o_cgSvQj_zucy-73">
          <mxGeometry y="35" width="80" height="90" as="geometry" />
        </mxCell>
        <mxCell id="W8yCb6-o_cgSvQj_zucy-75" value="Profile Image" style="text;html=1;align=center;verticalAlign=middle;whiteSpace=wrap;rounded=0;" vertex="1" parent="W8yCb6-o_cgSvQj_zucy-73">
          <mxGeometry x="10" y="65" width="60" height="30" as="geometry" />
        </mxCell>
        <mxCell id="W8yCb6-o_cgSvQj_zucy-76" value="Modify" style="strokeWidth=1;shadow=0;dashed=0;align=center;html=1;shape=mxgraph.mockup.buttons.button;strokeColor=#666666;fontColor=#ffffff;mainText=;buttonStyle=round;fontSize=17;fontStyle=1;fillColor=#008cff;whiteSpace=wrap;" vertex="1" parent="W8yCb6-o_cgSvQj_zucy-73">
          <mxGeometry x="505" y="155" width="100" height="40" as="geometry" />
        </mxCell>
        <mxCell id="W8yCb6-o_cgSvQj_zucy-77" value="Submit" style="strokeWidth=1;shadow=0;dashed=0;align=center;html=1;shape=mxgraph.mockup.buttons.button;strokeColor=#666666;fontColor=#ffffff;mainText=;buttonStyle=round;fontSize=17;fontStyle=1;fillColor=#008cff;whiteSpace=wrap;" vertex="1" parent="W8yCb6-o_cgSvQj_zucy-73">
          <mxGeometry x="755" y="155" width="110" height="40" as="geometry" />
        </mxCell>
        <mxCell id="W8yCb6-o_cgSvQj_zucy-78" value="Delete" style="strokeWidth=1;shadow=0;dashed=0;align=center;html=1;shape=mxgraph.mockup.buttons.button;strokeColor=#666666;fontColor=#ffffff;mainText=;buttonStyle=round;fontSize=17;fontStyle=1;fillColor=#008cff;whiteSpace=wrap;" vertex="1" parent="W8yCb6-o_cgSvQj_zucy-73">
          <mxGeometry x="625" y="155" width="110" height="40" as="geometry" />
        </mxCell>
        <mxCell id="W8yCb6-o_cgSvQj_zucy-79" value="author" style="rounded=0;whiteSpace=wrap;html=1;" vertex="1" parent="W8yCb6-o_cgSvQj_zucy-73">
          <mxGeometry x="125" width="115" height="25" as="geometry" />
        </mxCell>
        <mxCell id="W8yCb6-o_cgSvQj_zucy-80" value="&lt;span style=&quot;color: rgb(170, 170, 170); font-family: &amp;quot;Noto Sans&amp;quot;, sans-serif; font-style: normal; font-variant-ligatures: normal; font-variant-caps: normal; font-weight: 400; letter-spacing: normal; orphans: 2; text-align: left; text-indent: 0px; text-transform: none; widows: 2; word-spacing: 0px; -webkit-text-stroke-width: 0px; white-space: normal; background-color: rgb(252, 252, 252); text-decoration-thickness: initial; text-decoration-style: initial; text-decoration-color: initial; float: none; display: inline !important;&quot;&gt;&lt;font style=&quot;font-size: 13px;&quot;&gt;2024.01.25 14:16&lt;/font&gt;&lt;/span&gt;" style="rounded=0;whiteSpace=wrap;html=1;" vertex="1" parent="W8yCb6-o_cgSvQj_zucy-73">
          <mxGeometry x="255" width="115" height="25" as="geometry" />
        </mxCell>
        <mxCell id="W8yCb6-o_cgSvQj_zucy-82" value="&lt;font style=&quot;font-size: 25px;&quot;&gt;Comments&lt;/font&gt;" style="text;html=1;align=center;verticalAlign=middle;whiteSpace=wrap;rounded=0;" vertex="1" parent="7026571954dc6520-1">
          <mxGeometry x="60" y="165" width="180" height="30" as="geometry" />
        </mxCell>
      </root>
    </mxGraphModel>
  </diagram>
</mxfile>
